<?xml version="1.0" standalone="no"?>
<!DOCTYPE svg PUBLIC "-//W3C//DTD SVG 20010904//EN"
 "http://www.w3.org/TR/2001/REC-SVG-20010904/DTD/svg10.dtd">
<svg version="1.0" xmlns="http://www.w3.org/2000/svg"
 width="200.000000pt" height="200.000000pt" viewBox="0 0 200.000000 200.000000"
 preserveAspectRatio="xMidYMid meet">

<g transform="translate(0.000000,200.000000) scale(0.100000,-0.100000)"
fill="#000000" stroke="none">
<path d="M794 1323 c94 -92 238 -234 321 -315 82 -80 153 -144 158 -141 5 3 8
42 7 87 -1 44 -2 138 -1 208 l1 128 43 21 c23 12 57 33 76 47 34 27 101 108
101 123 0 5 -46 9 -103 9 -101 0 -104 -1 -131 -29 -16 -16 -50 -39 -77 -51
l-49 -21 0 -94 c0 -52 -3 -95 -6 -95 -3 0 -74 65 -157 145 l-152 145 -101 0
-101 0 171 -167z"/>
<path d="M730 932 l0 -212 -27 -16 c-81 -49 -131 -88 -162 -125 -56 -68 -52
-72 68 -71 92 1 105 3 118 21 17 25 93 71 116 71 15 0 17 13 17 100 0 55 3
100 6 100 3 0 74 -65 157 -145 l151 -145 68 -1 c37 -1 79 -1 93 -1 14 0 29 0
33 1 5 1 -66 74 -157 164 -143 140 -463 454 -477 466 -2 2 -4 -91 -4 -207z"/>
</g>
</svg>
